<mxfile host="app.diagrams.net" agent="Mozilla/5.0 (Windows NT 10.0; Win64; x64) AppleWebKit/537.36 (KHTML, like Gecko) Chrome/137.0.0.0 Safari/537.36 Edg/137.0.0.0" version="27.1.1">
  <diagram name="Page-1" id="pBcOG7YpQxvu8bgK7aZl">
    <mxGraphModel dx="1094" dy="1906" grid="1" gridSize="10" guides="1" tooltips="1" connect="1" arrows="1" fold="1" page="1" pageScale="1" pageWidth="827" pageHeight="1169" math="0" shadow="0">
      <root>
        <mxCell id="0" />
        <mxCell id="1" parent="0" />
        <mxCell id="VmKni9tjyHluU8ScRFIQ-49" value="" style="edgeStyle=orthogonalEdgeStyle;rounded=0;orthogonalLoop=1;jettySize=auto;html=1;" edge="1" parent="1" source="3" target="VmKni9tjyHluU8ScRFIQ-48">
          <mxGeometry relative="1" as="geometry" />
        </mxCell>
        <mxCell id="3" value="Login" style="whiteSpace=wrap;strokeWidth=2;fontSize=14;" parent="1" vertex="1">
          <mxGeometry x="810" y="-54" width="86.5" height="44" as="geometry" />
        </mxCell>
        <mxCell id="VmKni9tjyHluU8ScRFIQ-57" style="edgeStyle=orthogonalEdgeStyle;rounded=0;orthogonalLoop=1;jettySize=auto;html=1;exitX=0.5;exitY=1;exitDx=0;exitDy=0;entryX=0.5;entryY=0;entryDx=0;entryDy=0;" edge="1" parent="1" source="5" target="7">
          <mxGeometry relative="1" as="geometry" />
        </mxCell>
        <mxCell id="VmKni9tjyHluU8ScRFIQ-59" style="edgeStyle=orthogonalEdgeStyle;rounded=0;orthogonalLoop=1;jettySize=auto;html=1;exitX=0;exitY=0.75;exitDx=0;exitDy=0;entryX=0.5;entryY=0;entryDx=0;entryDy=0;" edge="1" parent="1" source="5" target="6">
          <mxGeometry relative="1" as="geometry" />
        </mxCell>
        <mxCell id="VmKni9tjyHluU8ScRFIQ-60" style="edgeStyle=orthogonalEdgeStyle;rounded=0;orthogonalLoop=1;jettySize=auto;html=1;exitX=1;exitY=0.5;exitDx=0;exitDy=0;entryX=0.75;entryY=0;entryDx=0;entryDy=0;" edge="1" parent="1" source="5" target="9">
          <mxGeometry relative="1" as="geometry" />
        </mxCell>
        <mxCell id="VmKni9tjyHluU8ScRFIQ-61" value="Manage" style="edgeLabel;html=1;align=center;verticalAlign=middle;resizable=0;points=[];" vertex="1" connectable="0" parent="VmKni9tjyHluU8ScRFIQ-60">
          <mxGeometry x="-0.0917" y="-3" relative="1" as="geometry">
            <mxPoint x="-1" as="offset" />
          </mxGeometry>
        </mxCell>
        <mxCell id="5" value="Dashboard" style="whiteSpace=wrap;strokeWidth=2;fontSize=14;" parent="1" vertex="1">
          <mxGeometry x="782" y="216" width="134" height="54" as="geometry" />
        </mxCell>
        <mxCell id="6" value="BMI" style="whiteSpace=wrap;strokeWidth=2;fontSize=14;" parent="1" vertex="1">
          <mxGeometry x="333" y="510" width="85" height="54" as="geometry" />
        </mxCell>
        <mxCell id="7" value="DietPlan" style="whiteSpace=wrap;strokeWidth=2;fontSize=14;" parent="1" vertex="1">
          <mxGeometry x="555" y="320" width="120" height="54" as="geometry" />
        </mxCell>
        <mxCell id="8" value="WorkoutPlan" style="whiteSpace=wrap;strokeWidth=2;fontSize=14;" parent="1" vertex="1">
          <mxGeometry x="1041" y="317" width="150" height="54" as="geometry" />
        </mxCell>
        <mxCell id="VmKni9tjyHluU8ScRFIQ-65" value="" style="edgeStyle=orthogonalEdgeStyle;rounded=0;orthogonalLoop=1;jettySize=auto;html=1;" edge="1" parent="1" source="9">
          <mxGeometry relative="1" as="geometry">
            <mxPoint x="1467.0000000000005" y="579.5000000000005" as="targetPoint" />
          </mxGeometry>
        </mxCell>
        <mxCell id="9" value="Personal Profile" style="whiteSpace=wrap;strokeWidth=2;fontSize=14;" parent="1" vertex="1">
          <mxGeometry x="1396" y="494.5" width="164" height="45.5" as="geometry" />
        </mxCell>
        <mxCell id="VmKni9tjyHluU8ScRFIQ-45" style="edgeStyle=orthogonalEdgeStyle;rounded=0;orthogonalLoop=1;jettySize=auto;html=1;exitX=0.75;exitY=1;exitDx=0;exitDy=0;entryX=0;entryY=0.5;entryDx=0;entryDy=0;" edge="1" parent="1" source="10" target="VmKni9tjyHluU8ScRFIQ-41">
          <mxGeometry relative="1" as="geometry" />
        </mxCell>
        <mxCell id="10" value="Calculate BMI" style="whiteSpace=wrap;strokeWidth=2;fontSize=13;" parent="1" vertex="1">
          <mxGeometry x="335" y="630" width="135" height="30" as="geometry" />
        </mxCell>
        <mxCell id="12" value="Choose Meal Plan" style="whiteSpace=wrap;strokeWidth=2;fontSize=13;" parent="1" vertex="1">
          <mxGeometry x="430" y="424" width="159" height="36" as="geometry" />
        </mxCell>
        <mxCell id="13" value="Track Nutrition" style="whiteSpace=wrap;strokeWidth=2;fontSize=13;" parent="1" vertex="1">
          <mxGeometry x="650" y="424" width="176" height="26" as="geometry" />
        </mxCell>
        <mxCell id="14" value="Choose Workout Plan" style="whiteSpace=wrap;strokeWidth=2;fontSize=13;" parent="1" vertex="1">
          <mxGeometry x="910" y="424" width="177" height="26" as="geometry" />
        </mxCell>
        <mxCell id="15" value="Track Workout Progress" style="whiteSpace=wrap;strokeWidth=2;fontSize=13;" parent="1" vertex="1">
          <mxGeometry x="1160" y="424" width="203" height="36" as="geometry" />
        </mxCell>
        <mxCell id="VmKni9tjyHluU8ScRFIQ-43" style="edgeStyle=orthogonalEdgeStyle;rounded=0;orthogonalLoop=1;jettySize=auto;html=1;exitX=0.25;exitY=1;exitDx=0;exitDy=0;entryX=1;entryY=0.5;entryDx=0;entryDy=0;" edge="1" parent="1" source="16" target="VmKni9tjyHluU8ScRFIQ-41">
          <mxGeometry relative="1" as="geometry" />
        </mxCell>
        <mxCell id="16" value="Update Personal Info" style="whiteSpace=wrap;strokeWidth=2;fontSize=13;" parent="1" vertex="1">
          <mxGeometry x="1140" y="634" width="150" height="36" as="geometry" />
        </mxCell>
        <mxCell id="VmKni9tjyHluU8ScRFIQ-44" style="edgeStyle=orthogonalEdgeStyle;rounded=0;orthogonalLoop=1;jettySize=auto;html=1;exitX=0.25;exitY=1;exitDx=0;exitDy=0;entryX=1;entryY=1;entryDx=0;entryDy=0;" edge="1" parent="1" source="17" target="VmKni9tjyHluU8ScRFIQ-41">
          <mxGeometry relative="1" as="geometry">
            <Array as="points">
              <mxPoint x="1427" y="791" />
            </Array>
          </mxGeometry>
        </mxCell>
        <mxCell id="17" value="Get Membership" style="whiteSpace=wrap;strokeWidth=2;fontSize=13;" parent="1" vertex="1">
          <mxGeometry x="1375" y="720" width="124" height="36" as="geometry" />
        </mxCell>
        <mxCell id="29" value="" style="curved=1;startArrow=none;endArrow=block;exitX=0;exitY=0.99;entryX=0.5;entryY=0;" parent="1" source="7" target="12" edge="1">
          <mxGeometry relative="1" as="geometry">
            <Array as="points">
              <mxPoint x="497" y="399" />
            </Array>
          </mxGeometry>
        </mxCell>
        <mxCell id="30" value="" style="curved=1;startArrow=none;endArrow=block;exitX=1;exitY=0.99;entryX=0.5;entryY=0;" parent="1" source="7" target="13" edge="1">
          <mxGeometry relative="1" as="geometry">
            <Array as="points">
              <mxPoint x="733" y="399" />
            </Array>
          </mxGeometry>
        </mxCell>
        <mxCell id="31" value="" style="curved=1;startArrow=none;endArrow=block;exitX=0.03;exitY=1;entryX=0.5;entryY=0;" parent="1" source="8" target="14" edge="1">
          <mxGeometry relative="1" as="geometry">
            <Array as="points">
              <mxPoint x="981" y="399" />
            </Array>
          </mxGeometry>
        </mxCell>
        <mxCell id="32" value="" style="curved=1;startArrow=none;endArrow=block;exitX=0.96;exitY=1;entryX=0.5;entryY=0;" parent="1" source="8" target="15" edge="1">
          <mxGeometry relative="1" as="geometry">
            <Array as="points">
              <mxPoint x="1250" y="399" />
            </Array>
          </mxGeometry>
        </mxCell>
        <mxCell id="33" value="" style="curved=1;startArrow=none;endArrow=block;exitX=0.13;exitY=1;entryX=0.5;entryY=0;" parent="1" source="9" target="16" edge="1">
          <mxGeometry relative="1" as="geometry">
            <Array as="points">
              <mxPoint x="1241" y="609" />
            </Array>
          </mxGeometry>
        </mxCell>
        <mxCell id="37" value="" style="curved=1;startArrow=none;endArrow=block;exitX=0.5;exitY=1;entryX=0;entryY=0;entryDx=0;entryDy=0;exitDx=0;exitDy=0;" parent="1" source="12" edge="1">
          <mxGeometry relative="1" as="geometry">
            <Array as="points">
              <mxPoint x="492" y="508" />
            </Array>
            <mxPoint x="492" y="483" as="sourcePoint" />
            <mxPoint x="821.251262658471" y="760.3223304703365" as="targetPoint" />
          </mxGeometry>
        </mxCell>
        <mxCell id="38" value="" style="curved=1;startArrow=none;endArrow=block;exitX=0.5;exitY=1;entryX=0;entryY=0;entryDx=0;entryDy=0;" parent="1" source="13" target="VmKni9tjyHluU8ScRFIQ-41" edge="1">
          <mxGeometry relative="1" as="geometry">
            <Array as="points">
              <mxPoint x="733" y="503" />
            </Array>
            <mxPoint x="806" y="749" as="targetPoint" />
          </mxGeometry>
        </mxCell>
        <mxCell id="39" value="" style="curved=1;startArrow=none;endArrow=block;exitX=0.5;exitY=1;entryX=1;entryY=0;entryDx=0;entryDy=0;" parent="1" source="14" target="VmKni9tjyHluU8ScRFIQ-41" edge="1">
          <mxGeometry relative="1" as="geometry">
            <Array as="points">
              <mxPoint x="981" y="503" />
            </Array>
            <mxPoint x="892" y="748.6399999999999" as="targetPoint" />
          </mxGeometry>
        </mxCell>
        <mxCell id="40" value="" style="curved=1;startArrow=none;endArrow=block;exitX=0.5;exitY=1;entryX=0.974;entryY=0.293;entryDx=0;entryDy=0;entryPerimeter=0;" parent="1" source="15" target="VmKni9tjyHluU8ScRFIQ-41" edge="1">
          <mxGeometry relative="1" as="geometry">
            <Array as="points">
              <mxPoint x="1250" y="503" />
            </Array>
            <mxPoint x="892" y="761.06" as="targetPoint" />
          </mxGeometry>
        </mxCell>
        <mxCell id="10przXfOInqhfylBeHad-49" value="" style="endArrow=none;html=1;rounded=0;" parent="1" edge="1">
          <mxGeometry width="50" height="50" relative="1" as="geometry">
            <mxPoint x="300" y="480" as="sourcePoint" />
            <mxPoint x="300" y="400" as="targetPoint" />
          </mxGeometry>
        </mxCell>
        <mxCell id="10przXfOInqhfylBeHad-50" value="" style="endArrow=none;html=1;rounded=0;" parent="1" edge="1">
          <mxGeometry width="50" height="50" relative="1" as="geometry">
            <mxPoint x="1616" y="490" as="sourcePoint" />
            <mxPoint x="1616" y="410" as="targetPoint" />
          </mxGeometry>
        </mxCell>
        <mxCell id="10przXfOInqhfylBeHad-51" value="" style="endArrow=none;html=1;rounded=0;" parent="1" edge="1">
          <mxGeometry width="50" height="50" relative="1" as="geometry">
            <mxPoint x="920" y="859" as="sourcePoint" />
            <mxPoint x="830" y="859" as="targetPoint" />
          </mxGeometry>
        </mxCell>
        <mxCell id="10przXfOInqhfylBeHad-52" value="" style="endArrow=none;html=1;rounded=0;" parent="1" edge="1">
          <mxGeometry width="50" height="50" relative="1" as="geometry">
            <mxPoint x="914.5" y="-200" as="sourcePoint" />
            <mxPoint x="824.5" y="-200" as="targetPoint" />
          </mxGeometry>
        </mxCell>
        <mxCell id="VmKni9tjyHluU8ScRFIQ-47" style="edgeStyle=orthogonalEdgeStyle;rounded=0;orthogonalLoop=1;jettySize=auto;html=1;exitX=0.5;exitY=1;exitDx=0;exitDy=0;entryX=0.5;entryY=0;entryDx=0;entryDy=0;" edge="1" parent="1" source="VmKni9tjyHluU8ScRFIQ-40">
          <mxGeometry relative="1" as="geometry">
            <mxPoint x="848" y="-55" as="targetPoint" />
          </mxGeometry>
        </mxCell>
        <mxCell id="VmKni9tjyHluU8ScRFIQ-40" value="&lt;font style=&quot;font-size: 14px;&quot;&gt;&lt;b&gt;Start&lt;/b&gt;&lt;/font&gt;" style="ellipse;whiteSpace=wrap;html=1;" vertex="1" parent="1">
          <mxGeometry x="812.5" y="-156" width="70" height="50" as="geometry" />
        </mxCell>
        <mxCell id="VmKni9tjyHluU8ScRFIQ-41" value="&lt;font style=&quot;font-size: 14px;&quot;&gt;&lt;b&gt;End&lt;/b&gt;&lt;/font&gt;" style="ellipse;whiteSpace=wrap;html=1;" vertex="1" parent="1">
          <mxGeometry x="816" y="748" width="70" height="50" as="geometry" />
        </mxCell>
        <mxCell id="VmKni9tjyHluU8ScRFIQ-51" value="" style="edgeStyle=orthogonalEdgeStyle;rounded=0;orthogonalLoop=1;jettySize=auto;html=1;" edge="1" parent="1" source="VmKni9tjyHluU8ScRFIQ-48" target="5">
          <mxGeometry relative="1" as="geometry" />
        </mxCell>
        <mxCell id="VmKni9tjyHluU8ScRFIQ-52" value="Yes" style="edgeLabel;html=1;align=center;verticalAlign=middle;resizable=0;points=[];" vertex="1" connectable="0" parent="VmKni9tjyHluU8ScRFIQ-51">
          <mxGeometry x="-0.1401" relative="1" as="geometry">
            <mxPoint y="1" as="offset" />
          </mxGeometry>
        </mxCell>
        <mxCell id="VmKni9tjyHluU8ScRFIQ-54" style="edgeStyle=orthogonalEdgeStyle;rounded=0;orthogonalLoop=1;jettySize=auto;html=1;exitX=0;exitY=0.5;exitDx=0;exitDy=0;entryX=0;entryY=0.5;entryDx=0;entryDy=0;" edge="1" parent="1" source="VmKni9tjyHluU8ScRFIQ-48" target="3">
          <mxGeometry relative="1" as="geometry">
            <Array as="points">
              <mxPoint x="720" y="104" />
              <mxPoint x="720" y="-27" />
            </Array>
          </mxGeometry>
        </mxCell>
        <mxCell id="VmKni9tjyHluU8ScRFIQ-56" value="No" style="edgeLabel;html=1;align=center;verticalAlign=middle;resizable=0;points=[];" vertex="1" connectable="0" parent="VmKni9tjyHluU8ScRFIQ-54">
          <mxGeometry x="-0.6221" y="1" relative="1" as="geometry">
            <mxPoint x="-1" as="offset" />
          </mxGeometry>
        </mxCell>
        <mxCell id="VmKni9tjyHluU8ScRFIQ-48" value="Is Valid Login?" style="rhombus;whiteSpace=wrap;html=1;fontSize=14;strokeWidth=2;" vertex="1" parent="1">
          <mxGeometry x="807.5" y="60" width="82.5" height="87" as="geometry" />
        </mxCell>
        <mxCell id="VmKni9tjyHluU8ScRFIQ-58" style="edgeStyle=orthogonalEdgeStyle;rounded=0;orthogonalLoop=1;jettySize=auto;html=1;exitX=0.5;exitY=1;exitDx=0;exitDy=0;entryX=0.426;entryY=0.032;entryDx=0;entryDy=0;entryPerimeter=0;" edge="1" parent="1">
          <mxGeometry relative="1" as="geometry">
            <mxPoint x="849" y="268.99999999999955" as="sourcePoint" />
            <mxPoint x="1104.9" y="317.72800000000007" as="targetPoint" />
            <Array as="points">
              <mxPoint x="849" y="299" />
              <mxPoint x="1105" y="299" />
            </Array>
          </mxGeometry>
        </mxCell>
        <mxCell id="VmKni9tjyHluU8ScRFIQ-62" style="edgeStyle=orthogonalEdgeStyle;rounded=0;orthogonalLoop=1;jettySize=auto;html=1;exitX=0.25;exitY=1;exitDx=0;exitDy=0;entryX=0.129;entryY=0.046;entryDx=0;entryDy=0;entryPerimeter=0;" edge="1" parent="1" source="6" target="10">
          <mxGeometry relative="1" as="geometry" />
        </mxCell>
        <mxCell id="VmKni9tjyHluU8ScRFIQ-67" style="edgeStyle=orthogonalEdgeStyle;rounded=0;orthogonalLoop=1;jettySize=auto;html=1;exitX=0.5;exitY=1;exitDx=0;exitDy=0;entryX=0.75;entryY=0;entryDx=0;entryDy=0;" edge="1" parent="1" source="VmKni9tjyHluU8ScRFIQ-64" target="17">
          <mxGeometry relative="1" as="geometry" />
        </mxCell>
        <mxCell id="VmKni9tjyHluU8ScRFIQ-68" value="Yes" style="edgeLabel;html=1;align=center;verticalAlign=middle;resizable=0;points=[];" vertex="1" connectable="0" parent="VmKni9tjyHluU8ScRFIQ-67">
          <mxGeometry x="-0.3095" y="1" relative="1" as="geometry">
            <mxPoint y="-1" as="offset" />
          </mxGeometry>
        </mxCell>
        <mxCell id="VmKni9tjyHluU8ScRFIQ-64" value="Is Free&amp;nbsp;&lt;div&gt;User?&lt;/div&gt;" style="rhombus;whiteSpace=wrap;html=1;fontSize=14;strokeWidth=2;" vertex="1" parent="1">
          <mxGeometry x="1427" y="584.5" width="80" height="80" as="geometry" />
        </mxCell>
      </root>
    </mxGraphModel>
  </diagram>
</mxfile>
